# AST/ASF file generated using VICON BodyLanguage
# -----------------------------------------------
:version 1.10
:name VICON
:units
  mass 1.0
  length 0.45
  angle deg
:documentation
   .ast/.asf automatically generated from VICON data using
   VICON BodyBuilder and BodyLanguage model FoxedUp or BRILLIANT.MOD
:root
   order TX TY TZ RX RY RZ
   axis XYZ
   position 0 0 0  
   orientation 0 0 0 
:bonedata
  begin
     id 1 
     name lhipjoint
     direction 0.576517 -0.752066 0.319413 
     length 2.45433 
     axis 0 0 0  XYZ
  end
  begin
     id 2 
     name lfemur
     direction 0.34202 -0.939693 0  
     length 7.54459  
     axis 0 0 20  XYZ
    dof rx ry rz
    limits (-160.0 20.0)
           (-70.0 70.0)
           (-60.0 70.0)
  end
  begin
     id 3 
     name ltibia
     direction 0.34202 -0.939693 0   
     length 7.73986   
     axis 0 0 20   XYZ
    dof rx
    limits (-10.0 170.0)
  end
  begin
     id 4 
     name lfoot
     direction 0.090693 -0.249177 0.964202   
     length 2.28437   
     axis -90 7.62852e-016 20   XYZ
    dof rx rz
    limits (-45.0 90.0)
           (-70.0 20.0)
  end
  begin
     id 5 
     name ltoes
     direction 1.5356e-011 -4.21928e-011 1   
     length 1.14243   
     axis -90 7.62852e-016 20   XYZ
    dof rx
    limits (-90.0 20.0)
  end
  begin
     id 6 
     name rhipjoint
     direction -0.573937 -0.753736 0.320122   
     length 2.44889  
     axis 0 0 0  XYZ 
  end
  begin
     id 7 
     name rfemur
     direction -0.34202 -0.939693 0   
     length 7.50166   
     axis 0 0 -20   XYZ
    dof rx ry rz
    limits (-160.0 20.0)
           (-70.0 70.0)
           (-70.0 60.0)
  end
  begin
     id 8 
     name rtibia
     direction -0.34202 -0.939693 0   
     length 7.54266   
     axis 0 0 -20   XYZ
    dof rx
    limits (-10.0 170.0)
 end
 begin
     id 9 
     name rfoot
     direction -0.114017 -0.31326 0.942798   
     length 2.34212  
     axis -90 -7.62852e-016 -20   XYZ
    dof rx rz
    limits (-45.0 90.0)
           (-20.0 70.0)
  end
  begin
     id 10 
     name rtoes
     direction -1.53557e-011 -4.21867e-011 1   
     length 1.16246   
     axis -90 -7.62852e-016 -20   XYZ
    dof rx
    limits (-90.0 20.0)
  end
  begin
     id 11 
     name lowerback
     direction -0.0228371 0.999155 -0.034167   
     length 2.0537   
     axis 0 0 0   XYZ
    dof rx ry rz
    limits (-20.0 45.0)
           (-30.0 30.0)
           (-30.0 30.0)
  end
  begin
     id 12 
     name upperback
     direction 0.0198981 0.999794 0.00389455   
     length 2.05302   
     axis 0 0 0   XYZ
    dof rx ry rz
    limits (-20.0 45.0)
           (-30.0 30.0)
           (-30.0 30.0)
  end
  begin
     id 13 
     name thorax
     direction 0.0304566 0.99935 0.0192987   
     length 2.05315   
     axis 0 0 0   XYZ
    dof rx ry rz
    limits (-20.0 45.0)
           (-30.0 30.0)
           (-30.0 30.0)
  end
  begin
     id 14 
     name lowerneck
     direction -0.0196762 0.99417 0.106017   
     length 1.82056   
     axis 0 0 0   XYZ
    dof rx ry rz
    limits (-20.0 45.0)
           (-30.0 30.0)
           (-30.0 30.0)
  end
  begin
     id 15 
     name upperneck
     direction 0.00517787 0.9802 -0.197944   
     length 1.83835   
     axis 0 0 0   XYZ
    dof rx ry rz
    limits (-20.0 45.0)
           (-30.0 30.0)
           (-30.0 30.0)
  end
  begin
     id 16
     name head
     direction 0.00211419 0.996945 -0.078081  
     length 1.85629  
     axis 0 0 0   XYZ
    dof rx ry rz
    limits (-20.0 45.0)
           (-30.0 30.0)
           (-30.0 30.0)
  end
  begin
     id 17 
     name lclavicle
     direction 0.930001 0.365811 -0.0357824  
     length 3.81961  
     axis 0 0 0   XYZ
    dof ry rz
    limits (-20.0 10.0)
           (0.0 20.0)
  end
  begin
     id 18 
     name lhumerus
     direction 1 -4.48968e-011 -3.06644e-027   
     length 5.14507   
     axis 180 -30 -90   XYZ
    dof rx ry rz
    limits (-60.0 90.0)
           (-90.0 90.0)
           (-90.0 90.0)
  end
  begin
     id 19
     name lradius
     direction 1 -4.48965e-011 9.06925e-028   
     length 3.50646   
     axis 180 -30 -90   XYZ
    dof rx
    limits (-10.0 170.0)
  end
  begin
     id 20
     name lwrist
     direction 1 -4.48957e-011 1.03922e-027   
     length 1.75323   
     axis -2.56395e-016 90 90   XYZ
    dof ry
    limits (-180.0 0.0)
 end
  begin
     id 21 
     name lhand
     direction 1 -4.48967e-011 2.08017e-027   
     length 0.629969   
     axis -1.32723e-015 90 90   XYZ
    dof rx rz
    limits (-90.0 90.0)
           (-45.0 45.0)
  end
  begin
     id 22 
     name lfingers
     direction 1 -4.49089e-011 4.20095e-027   
     length 0.507897   
     axis -2.6545e-015 90 90   XYZ
    dof rx
    limits (0.0 90.0)
  end
  begin
     id 23
     name lthumb
     direction 0.707107 -6.35001e-011 0.707107   
     length 0.729241   
     axis -90 45 5.05613e-014   XYZ
    dof rx rz
    limits (-45.0 45.0)
           (-45.0 45.0)
  end
  begin
     id 24 
     name rclavicle
     direction -0.881882 0.464123 -0.0829113   
     length 3.47515  
     axis 0 0 0   XYZ 
    dof ry rz
    limits (-10.0 20.0)
           (-20.0 0.0)
  end
  begin
     id 25 
     name rhumerus
     direction -1 -4.48961e-011 -1.55672e-027  
     length 5.232   
     axis 180 30 90   XYZ
    dof rx ry rz
    limits (-90.0 60.0)
           (-90.0 90.0)
           (-90.0 90.0)
  end
  begin
     id 26 
     name rradius
     direction -1 -4.48963e-011 6.18178e-029   
     length 3.65641   
     axis 180 30 90   XYZ
    dof rx
    limits (-10.0 170.0)
  end
  begin
     id 27 
     name rwrist
     direction -1 -4.48982e-011 1.04136e-027   
     length 1.8282   
     axis -2.56395e-016 -90 -90   XYZ
    dof ry
    limits (-180.0 0.0)
  end
  begin
     id 28
     name rhand
     direction -1 -4.48929e-011 2.07378e-027   
     length 0.656807   
     axis -1.32723e-015 -90 -90   XYZ
    dof rx rz
    limits (-90.0 90.0)
           (-45.0 45.0)
  end
  begin
     id 29
     name rfingers
     direction -1 -4.489e-011 4.13816e-027   
     length 0.529535   
     axis -2.6545e-015 -90 -90   XYZ
    dof rx
    limits (0.0 90.0)
  end
  begin
     id 30
     name rthumb
     direction -0.707107 -6.34843e-011 0.707107   
     length 0.760309   
     axis -90 -45 -5.05613e-014   XYZ
    dof rx rz
    limits (-45.0 45.0)
           (-45.0 45.0)
  end
:hierarchy
  begin
    root lhipjoint rhipjoint lowerback
    lhipjoint lfemur
    lfemur ltibia
    ltibia lfoot
    lfoot ltoes
    rhipjoint rfemur
    rfemur rtibia
    rtibia rfoot
    rfoot rtoes
    lowerback upperback
    upperback thorax
    thorax lowerneck lclavicle rclavicle
    lowerneck upperneck
    upperneck head
    lclavicle lhumerus
    lhumerus lradius
    lradius lwrist
    lwrist lhand lthumb
    lhand lfingers
    rclavicle rhumerus
    rhumerus rradius
    rradius rwrist
    rwrist rhand rthumb
    rhand rfingers
  end

#!OML:ASF H:\ManfredETheater\Project 1\Capture day 1\Session 1\subject.ASF
:FULLY-SPECIFIED
:DEGREES
45
root 14.2348 14.9497 25.4526 -156.9 -35.9971 -191.803
lowerback 16.2088 -4.63751 -2.43405
upperback 0.921147 -6.5631 2.02165
thorax -7.5488 -3.12228 4.99208
lowerneck -18.3251 -0.326447 -5.78646
upperneck -9.58575 -0.804201 1.10634
head -0.0176275 -0.843225 1.29177
rclavicle -4.81059e-014 5.88403e-014
rhumerus -89.8997 4.68205 -75.7691
rradius 82.2315
rwrist -9.24937
rhand -41.6193 14.5871
rfingers 7.12502
rthumb -14.5284 -14.8842
lclavicle -4.81059e-014 5.88403e-014
lhumerus -18.4031 -36.4472 101.649
lradius 138.487
lwrist 3.41212
lhand -33.8898 -23.3623
lfingers 7.12502
lthumb -7.07318 6.49949
rfemur -71.8121 -9.31995 7.34401
rtibia 41.2226
rfoot -6.93556 -13.5131
rtoes -34.932
lfemur 13.9056 -11.6281 -25.647
ltibia 28.4427
lfoot 25.2615 -13.2346
ltoes -6.96101
46
root 13.9908 14.968 24.9446 -157.248 -35.1414 -191.856
lowerback 15.8259 -4.48859 -2.65718
upperback 0.796229 -6.39047 2.04478
thorax -7.46093 -3.02973 5.07296
lowerneck -18.4255 -0.209577 -5.8583
upperneck -9.23795 -0.606241 0.824257
head 0.104096 -0.74011 1.22327
rclavicle -3.37934e-014 -1.43125e-014
rhumerus -88.8524 4.96262 -74.762
rradius 81.0074
rwrist -8.49853
rhand -41.2982 14.1468
rfingers 7.12502
rthumb -14.2189 -15.3465
lclavicle -3.37934e-014 -1.43125e-014
lhumerus -19.9021 -35.9274 101.427
lradius 137.626
lwrist 2.26924
lhand -33.6479 -23.187
lfingers 7.12502
lthumb -6.83971 6.68252
rfemur -71.4476 -8.65673 8.02411
rtibia 41.7742
rfoot -5.91901 -12.9882
rtoes -34.822
lfemur 15.2784 -12.8828 -27.1866
ltibia 28.2895
lfoot 28.8909 -11.7673
ltoes -1.89489
47
root 13.754 14.9852 24.4445 -157.545 -34.309 -191.947
lowerback 15.5766 -4.32772 -2.92677
upperback 0.649263 -6.21099 2.07155
thorax -7.46724 -2.9276 5.19965
lowerneck -18.5247 -0.0898931 -5.90379
upperneck -8.99094 -0.422386 0.540827
head 0.193031 -0.649897 1.14955
rclavicle 4.8901e-014 -3.18055e-015
rhumerus -87.2805 5.06451 -73.6616
rradius 79.5588
rwrist -7.82539
rhand -41.0602 13.6537
rfingers 7.12502
rthumb -13.9896 -15.8555
lclavicle 4.8901e-014 -3.18055e-015
lhumerus -21.4609 -35.2717 101.348
lradius 136.235
lwrist 1.21524
lhand -33.5057 -22.7194
lfingers 7.12502
lthumb -6.70242 7.1545
rfemur -71.1512 -7.99226 8.6079
rtibia 42.8983
rfoot -4.36497 -12.16
rtoes -33.9861
lfemur 15.8336 -13.5071 -28.5359
ltibia 29.5986
lfoot 30.8199 -10.3197
ltoes 2.93992
48
root 13.5249 15.0039 23.9554 -157.867 -33.5022 -191.976
lowerback 15.4986 -4.15051 -3.14868
upperback 0.491514 -6.00443 2.11317
thorax -7.58821 -2.80863 5.33004
lowerneck -18.6312 0.0284917 -5.91611
upperneck -8.85186 -0.261579 0.246732
head 0.248232 -0.577529 1.06558
rclavicle -3.57812e-014 5.32743e-014
rhumerus -85.2184 4.94679 -72.507
rradius 77.902
rwrist -7.34028
rhand -40.9312 13.1176
rfingers 7.12502
rthumb -13.8653 -16.4002
lclavicle -3.57812e-014 5.32743e-014
lhumerus -23.0489 -34.49 101.414
lradius 134.378
lwrist 0.265479
lhand -33.5094 -22.1017
lfingers 7.12502
lthumb -6.70598 7.77216
rfemur -70.8953 -7.28867 9.13239
rtibia 44.521
rfoot -2.61431 -11.1388
rtoes -32.7977
lfemur 15.6055 -13.451 -29.5442
ltibia 32.2744
lfoot 31.1094 -8.71576
ltoes 6.38204
49
root 13.3035 15.0247 23.4785 -158.283 -32.7171 -191.865
lowerback 15.5971 -3.95124 -3.26748
upperback 0.339659 -5.75514 2.17537
thorax -7.81592 -2.66809 5.43415
lowerneck -18.6782 0.15301 -5.87563
upperneck -8.8618 -0.123278 -0.0588847
head 0.245311 -0.521718 0.967268
rclavicle -4.37326e-014 3.26007e-014
rhumerus -82.7195 4.57877 -71.3524
rradius 76.0628
rwrist -7.12275
rhand -40.8593 12.4875
rfingers 7.12502
rthumb -13.796 -17.0351
lclavicle -4.37326e-014 3.26007e-014
lhumerus -24.6384 -33.5657 101.598
lradius 132.172
lwrist -0.413628
lhand -33.5059 -21.3565
lfingers 7.12502
lthumb -6.70265 8.51744
rfemur -70.6428 -6.51782 9.64871
rtibia 46.5504
rfoot -0.864682 -9.95822
rtoes -30.9616
lfemur 14.7197 -12.8202 -30.1629
ltibia 36.0738
lfoot 30.1661 -6.79578
ltoes 8.19291
50
root 13.0892 15.0478 23.0143 -158.867 -31.9535 -191.556
lowerback 15.8853 -3.73183 -3.23046
upperback 0.216124 -5.45749 2.25749
thorax -8.13889 -2.50718 5.47814
lowerneck -18.6427 0.290486 -5.74898
upperneck -9.02153 -0.0057756 -0.386031
head 0.180476 -0.481263 0.845712
rclavicle -8.78628e-014 2.06736e-014
rhumerus -79.8244 3.9446 -70.2588
rradius 74.0457
rwrist -7.16278
rhand -40.8073 11.8126
rfingers 7.12502
rthumb -13.7459 -17.7134
lclavicle -8.78628e-014 2.06736e-014
lhumerus -26.1927 -32.4748 101.845
lradius 129.655
lwrist -0.830669
lhand -33.5624 -20.7008
lfingers 7.12502
lthumb -6.7571 9.17135
rfemur -70.3314 -5.68609 10.2356
rtibia 48.8781
rfoot 0.491433 -8.68439
rtoes -28.7357
lfemur 13.3495 -11.7653 -30.4002
ltibia 40.7164
lfoot 28.4063 -4.66256
ltoes 8.45236
51
root 12.882 15.0751 22.562 -159.655 -31.2117 -191.011
lowerback 16.3415 -3.49793 -3.01812
upperback 0.143758 -5.11324 2.36471
thorax -8.51953 -2.33112 5.45025
lowerneck -18.5391 0.446304 -5.53101
upperneck -9.30973 0.100061 -0.720182
head 0.0636952 -0.450774 0.705758
rclavicle 4.57205e-014 -2.06736e-014
rhumerus -76.5535 3.04959 -69.2872
rradius 71.8625
rwrist -7.37329
rhand -40.7454 11.2304
rfingers 7.12502
rthumb -13.6862 -18.2996
lclavicle 4.57205e-014 -2.06736e-014
lhumerus -27.6488 -31.196 102.076
lradius 126.871
lwrist -0.962421
lhand -33.7036 -20.1902
lfingers 7.12502
lthumb -6.89345 9.67758
rfemur -69.8729 -4.7854 10.9435
rtibia 51.3661
rfoot 1.13514 -7.52517
rtoes -26.2364
lfemur 11.6226 -10.4516 -30.2777
ltibia 45.9665
lfoot 26.1155 -2.63549
ltoes 7.49361
52
root 12.6809 15.1078 22.1205 -160.653 -30.497 -190.218
lowerback 16.9283 -3.2651 -2.60807
upperback 0.139942 -4.7348 2.50066
thorax -8.91478 -2.15085 5.33671
lowerneck -18.444 0.618566 -5.23769
upperneck -9.66031 0.203951 -1.04177
head -0.07055 -0.425293 0.557737
rclavicle -2.22639e-014 0
rhumerus -72.9149 1.9192 -68.5014
rradius 69.5579
rwrist -7.65699
rhand -40.5907 10.6889
rfingers 7.12502
rthumb -13.5372 -18.8511
lclavicle -2.22639e-014 0
lhumerus -28.9258 -29.7096 102.199
lradius 123.837
lwrist -0.766214
lhand -33.9379 -19.8529
lfingers 7.12502
lthumb -7.11965 10.0073
rfemur -69.1908 -3.86652 11.8564
rtibia 53.8566
rfoot 0.98096 -6.57532
rtoes -23.9641
lfemur 9.60107 -8.98122 -29.8123
ltibia 51.6478
lfoot 23.7225 -1.21985
ltoes 5.80503
53
root 12.486 15.148 21.6872 -161.851 -29.8449 -189.156
lowerback 17.5935 -3.05648 -1.98229
upperback 0.206899 -4.34329 2.67992
thorax -9.28663 -1.98031 5.14094
lowerneck -18.3858 0.80693 -4.88146
upperneck -10.0197 0.316465 -1.33333
head -0.199973 -0.398431 0.410232
rclavicle -2.22639e-014 -6.36111e-015
rhumerus -68.9369 0.592393 -67.9662
rradius 67.1978
rwrist -7.88256
rhand -40.3291 10.2849
rfingers 7.12502
rthumb -13.285 -19.2717
lclavicle -2.22639e-014 -6.36111e-015
lhumerus -29.9625 -28.0113 102.144
lradius 120.534
lwrist -0.233995
lhand -34.2157 -19.6528
lfingers 7.12502
lthumb -7.3878 10.1983
rfemur -68.2042 -2.97049 13.0454
rtibia 56.1857
rfoot 0.0450368 -5.9845
rtoes -22.1085
lfemur 7.31697 -7.44026 -28.9694
ltibia 57.6298
lfoot 21.5675 -0.658004
ltoes 3.83892
